<?xml version="1.0" standalone="no"?>
<!DOCTYPE svg PUBLIC "-//W3C//DTD SVG 20010904//EN"
 "http://www.w3.org/TR/2001/REC-SVG-20010904/DTD/svg10.dtd">
<svg version="1.0" xmlns="http://www.w3.org/2000/svg"
 width="500.000000pt" height="500.000000pt" viewBox="0 0 500.000000 500.000000"
 preserveAspectRatio="xMidYMid meet">

<g transform="translate(0.000000,500.000000) scale(0.100000,-0.100000)"
fill="#000000" stroke="none">
<path d="M2446 3848 c3 -11 19 -49 35 -82 16 -34 29 -68 29 -77 0 -9 -12 -43
-26 -75 -46 -103 -46 -104 -24 -104 15 0 28 17 48 63 l29 62 28 -56 28 -56 96
-6 c52 -3 97 -5 98 -4 2 3 -128 301 -146 335 -11 20 -18 22 -107 22 -93 0 -95
0 -88 -22z"/>
<path d="M2610 3487 c0 -5 210 -469 214 -474 1 -2 30 28 64 66 l62 69 -71 160
-70 160 -42 6 c-101 13 -157 18 -157 13z"/>
<path d="M2423 3468 c-9 -12 -330 -744 -413 -943 -104 -246 -292 -663 -331
-731 -86 -150 -186 -224 -331 -245 -43 -6 -78 -15 -78 -20 0 -5 109 -9 243 -9
l243 0 81 83 81 83 -15 54 c-9 37 -12 77 -8 120 6 68 50 262 66 292 8 15 29
18 146 20 98 2 138 7 141 16 3 9 -28 12 -132 12 -75 0 -136 3 -136 6 0 3 34
104 75 224 66 193 280 739 378 968 32 73 34 82 18 82 -10 0 -23 -6 -28 -12z"/>
<path d="M2968 2908 c-25 -35 -47 -68 -51 -74 -7 -13 106 -289 210 -514 20
-41 39 -85 44 -97 l9 -23 -344 0 c-296 0 -345 -2 -350 -15 -5 -13 38 -15 350
-15 l355 0 20 -47 c11 -27 50 -124 85 -216 110 -285 92 -333 -135 -358 -55 -7
-101 -16 -101 -20 0 -5 203 -9 450 -9 248 0 450 4 450 9 0 4 -38 13 -85 19
-109 14 -181 48 -240 114 -65 73 -97 134 -255 498 -78 179 -154 352 -170 385
-15 33 -63 142 -105 243 -43 100 -82 182 -86 182 -4 0 -27 -28 -51 -62z"/>
<path d="M1951 1560 l-44 -40 207 0 c167 0 206 3 206 14 0 10 -26 14 -102 18
-67 4 -124 13 -163 27 -32 12 -59 21 -60 21 0 -1 -20 -19 -44 -40z"/>
<path d="M2160 1216 c0 -2 16 -39 36 -82 19 -43 36 -87 37 -96 1 -10 8 -18 17
-18 12 0 6 19 -27 88 -23 48 -43 93 -43 100 0 10 -20 19 -20 8z"/>
<path d="M2320 1211 c0 -5 9 -7 20 -4 11 3 20 7 20 9 0 2 -9 4 -20 4 -11 0
-20 -4 -20 -9z"/>
<path d="M2430 1144 c0 -41 -5 -85 -11 -96 -7 -14 -8 -18 0 -14 25 16 45 186
21 186 -6 0 -10 -32 -10 -76z"/>
<path d="M2500 1146 c0 -56 4 -78 18 -93 9 -10 14 -14 10 -9 -5 6 -8 47 -8 93
0 49 -4 83 -10 83 -6 0 -10 -31 -10 -74z"/>
<path d="M2660 1144 c0 -41 -5 -85 -11 -97 -11 -21 -10 -21 6 -6 21 20 35 179
16 179 -7 0 -11 -26 -11 -76z"/>
<path d="M2744 1120 c0 -58 1 -81 3 -52 2 28 2 76 0 105 -2 28 -3 5 -3 -53z"/>
<path d="M2805 1120 c0 -82 3 -100 15 -100 12 0 14 11 12 49 l-4 50 64 4 63 3
-64 2 -63 2 4 45 c2 35 0 45 -12 45 -12 0 -15 -18 -15 -100z"/>
<path d="M2910 1216 c0 -2 11 -6 25 -8 14 -3 25 -1 25 3 0 5 -11 9 -25 9 -14
0 -25 -2 -25 -4z"/>
<path d="M2990 1215 c0 -3 18 -30 40 -59 41 -54 48 -82 30 -117 -9 -16 -7 -19
8 -19 16 0 17 6 12 54 -5 43 -14 64 -44 100 -35 44 -46 53 -46 41z"/>
<path d="M3117 1200 c5 -20 7 -20 24 -4 24 22 24 24 -5 24 -19 0 -23 -4 -19
-20z"/>
<path d="M2111 1089 c-6 -18 -19 -41 -28 -51 -15 -17 -15 -18 10 -18 19 0 25
4 21 15 -3 8 -1 29 5 46 6 18 9 34 7 36 -2 2 -9 -11 -15 -28z"/>
<path d="M2310 1035 c7 -8 22 -15 34 -15 18 0 17 2 -8 15 -36 19 -42 19 -26 0z"/>
<path d="M1550 656 c0 -2 16 -39 36 -82 19 -43 36 -87 37 -96 1 -10 8 -18 17
-18 12 0 6 19 -27 88 -23 48 -43 93 -43 100 0 10 -20 19 -20 8z"/>
<path d="M1710 651 c0 -5 9 -7 20 -4 11 3 20 7 20 9 0 2 -9 4 -20 4 -11 0 -20
-4 -20 -9z"/>
<path d="M1820 577 c0 -46 -4 -88 -10 -95 -5 -7 -2 -5 7 3 21 19 33 175 14
175 -7 0 -11 -29 -11 -83z"/>
<path d="M1892 580 c2 -60 7 -83 21 -95 9 -8 12 -10 7 -3 -6 7 -10 49 -10 95
0 54 -4 83 -11 83 -8 0 -10 -26 -7 -80z"/>
<path d="M2050 577 c0 -46 -3 -87 -7 -93 -5 -5 0 -1 10 9 13 15 17 37 17 93 0
43 -4 74 -10 74 -6 0 -10 -34 -10 -83z"/>
<path d="M2300 647 c14 -8 27 -12 30 -10 7 6 -23 23 -40 23 -8 0 -4 -6 10 -13z"/>
<path d="M2630 645 c14 -7 27 -11 30 -9 6 7 -22 24 -40 23 -9 0 -5 -6 10 -14z"/>
<path d="M2715 560 c0 -82 3 -100 15 -100 13 0 14 16 12 100 -2 69 -7 100 -15
100 -8 0 -12 -30 -12 -100z"/>
<path d="M2828 644 c28 -19 29 -67 2 -94 -11 -11 -16 -20 -12 -20 17 0 52 47
52 68 0 24 -32 62 -52 62 -7 0 -2 -7 10 -16z"/>
<path d="M2937 640 c-30 -24 -45 -81 -29 -113 10 -19 10 -18 5 9 -7 42 20 92
60 109 25 11 28 14 11 15 -12 0 -33 -9 -47 -20z"/>
<path d="M3130 651 c0 -5 9 -7 20 -4 11 3 20 7 20 9 0 2 -9 4 -20 4 -11 0 -20
-4 -20 -9z"/>
<path d="M3208 560 c-2 -84 -1 -100 12 -100 13 0 14 16 12 100 -2 55 -7 100
-12 100 -5 0 -10 -45 -12 -100z"/>
<path d="M3270 656 c0 -2 9 -6 20 -9 11 -3 20 -1 20 4 0 5 -9 9 -20 9 -11 0
-20 -2 -20 -4z"/>
<path d="M3354 560 c0 -58 1 -81 3 -52 2 28 2 76 0 105 -2 28 -3 5 -3 -53z"/>
<path d="M3415 560 c0 -82 3 -100 15 -100 12 0 14 11 12 49 l-4 50 64 4 63 3
-64 2 -63 2 4 45 c2 35 0 45 -12 45 -12 0 -15 -18 -15 -100z"/>
<path d="M3520 656 c0 -2 11 -6 25 -8 14 -3 25 -1 25 3 0 5 -11 9 -25 9 -14 0
-25 -2 -25 -4z"/>
<path d="M3600 655 c0 -3 18 -30 40 -59 41 -54 48 -82 30 -117 -9 -16 -7 -19
8 -19 16 0 17 6 12 54 -5 43 -14 64 -44 100 -35 44 -46 53 -46 41z"/>
<path d="M3727 640 c5 -20 7 -20 24 -4 24 22 24 24 -5 24 -19 0 -23 -4 -19
-20z"/>
<path d="M2180 613 c0 -26 28 -47 85 -62 50 -14 61 -21 68 -46 4 -12 5 -9 4
10 -2 28 -7 32 -67 51 -47 14 -68 27 -77 45 -13 24 -13 24 -13 2z"/>
<path d="M2510 614 c0 -28 17 -41 81 -62 37 -12 57 -25 66 -42 12 -23 13 -23
13 -4 0 28 -17 41 -81 62 -37 12 -57 25 -66 42 -12 23 -13 23 -13 4z"/>
<path d="M3095 590 c13 -57 -36 -119 -94 -121 -32 -2 -33 -2 -7 -6 77 -12 146
78 106 137 -8 11 -9 9 -5 -10z"/>
<path d="M1501 529 c-6 -18 -19 -41 -28 -51 -15 -17 -15 -18 10 -18 19 0 25 4
21 15 -3 8 -1 29 5 46 6 18 9 34 7 36 -2 2 -9 -11 -15 -28z"/>
<path d="M2189 480 c13 -11 31 -20 40 -19 11 0 10 3 -5 9 -12 5 -25 13 -29 19
-3 6 -12 11 -18 11 -7 -1 -1 -10 12 -20z"/>
<path d="M2519 480 c13 -11 28 -20 33 -20 6 0 -1 9 -15 20 -33 26 -49 26 -18
0z"/>
<path d="M1704 475 c11 -8 27 -15 35 -15 10 1 7 6 -9 15 -33 19 -50 18 -26 0z"/>
</g>
</svg>
